<svg width="1159" height="50" viewBox="0 0 1159 50" fill="none" xmlns="http://www.w3.org/2000/svg">
<path d="M37.5411 17.6568H19.7194V22.9373H32.3431C31.7243 30.363 25.5362 33.4983 19.7194 33.4983C12.2524 33.4983 5.77555 27.6403 5.77555 19.4307C5.77555 11.4275 11.9636 5.28065 19.7194 5.28065C25.7012 5.28065 29.249 9.11727 29.249 9.11727L32.9619 5.28065C32.9619 5.28065 28.2177 0.000152588 19.5544 0.000152588C8.53956 0.000152588 0 9.32354 0 19.3482C0 29.2079 8.04451 38.8201 19.8431 38.8201C30.2391 38.8201 37.8298 31.6832 37.8298 21.1634C37.8298 18.9357 37.5411 17.6568 37.5411 17.6568Z" fill="#4285F4"/>
<path d="M52.1042 13.8202C44.8023 13.8202 39.563 19.5545 39.563 26.1964C39.563 32.962 44.6373 38.7788 52.1867 38.7788C59.0349 38.7788 64.6042 33.5396 64.6042 26.3614C64.6454 18.0693 58.1273 13.8202 52.1042 13.8202ZM52.1867 18.7294C55.7758 18.7294 59.1999 21.6172 59.1999 26.3201C59.1999 30.8993 55.8171 33.9109 52.1867 33.9109C48.1851 33.9109 45.0498 30.7343 45.0498 26.3201C45.0498 21.9472 48.1439 18.7294 52.1867 18.7294Z" fill="#EA4335"/>
<path d="M79.4134 13.8202C72.1114 13.8202 66.8722 19.5545 66.8722 26.1964C66.8722 32.962 71.9464 38.7788 79.4959 38.7788C86.344 38.7788 91.9133 33.5396 91.9133 26.3614C91.9133 18.0693 85.3952 13.8202 79.4134 13.8202ZM79.4959 18.7294C83.085 18.7294 86.5091 21.6172 86.5091 26.3201C86.5091 30.8993 83.1262 33.9109 79.4959 33.9109C75.4943 33.9109 72.359 30.7343 72.359 26.3201C72.3177 21.9472 75.453 18.7294 79.4959 18.7294Z" fill="#FBBC05"/>
<path d="M106.147 13.8202C99.4226 13.8202 94.1833 19.6783 94.1833 26.2789C94.1833 33.7871 100.289 38.7788 106.064 38.7788C109.612 38.7788 111.51 37.3762 112.913 35.726V38.2013C112.913 42.4917 110.314 45.0907 106.353 45.0907C102.558 45.0907 100.619 42.2441 99.9589 40.6352L95.1734 42.6567C96.8648 46.2458 100.289 49.9999 106.394 49.9999C113.078 49.9999 118.152 45.792 118.152 37.0049V14.5628H112.913V16.6667C111.304 14.9753 109.076 13.8202 106.147 13.8202ZM106.642 18.7294C109.942 18.7294 113.325 21.5347 113.325 26.3201C113.325 31.1881 109.942 33.8696 106.601 33.8696C103.012 33.8696 99.7114 30.9818 99.7114 26.3614C99.6701 21.5759 103.135 18.7294 106.642 18.7294Z" fill="#4285F4"/>
<path d="M141.377 13.8202C135.065 13.8202 129.744 18.8532 129.744 26.2789C129.744 34.1584 135.684 38.8201 141.996 38.8201C147.276 38.8201 150.536 35.9323 152.433 33.3333L148.102 30.4455C146.988 32.1782 145.09 33.8696 141.996 33.8696C138.489 33.8696 136.88 31.9307 135.89 30.0742L152.639 23.1436L151.773 21.1221C150.164 17.1205 146.369 13.8202 141.377 13.8202ZM141.625 18.6056C143.894 18.6056 145.544 19.802 146.245 21.2872L135.065 25.9488C134.57 22.3185 137.994 18.6056 141.625 18.6056Z" fill="#EA4335"/>
<path d="M127.268 1.27911H121.782V38.0776H127.268V1.27911Z" fill="#34A853"/>
<path d="M431.491 22.807V19.0893H426.886V13.3186L426.719 13.3741L422.391 14.7058H422.28V19.0893H415.455V16.6479C415.455 15.5381 415.733 14.6503 416.232 14.0954C416.732 13.5406 417.453 13.2076 418.341 13.2076C419.007 13.2076 419.672 13.3741 420.338 13.6515L420.505 13.707V9.82289L420.449 9.76741C419.839 9.54546 418.951 9.43448 417.897 9.43448C416.565 9.43448 415.344 9.71192 414.29 10.3223C413.236 10.8772 412.404 11.7095 411.793 12.7637C411.183 13.818 410.905 15.0387 410.905 16.3704V19.0338H407.687V22.7515H410.905V38.399H415.511V22.7515H422.336V32.7392C422.336 36.8453 424.278 38.8984 428.051 38.8984C428.661 38.8984 429.327 38.8429 429.993 38.6764C430.659 38.51 431.158 38.399 431.436 38.2325L431.491 38.177V34.4594L431.325 34.5703C431.047 34.7368 430.77 34.8478 430.382 34.9587C429.993 35.0697 429.716 35.1252 429.494 35.1252C428.606 35.1252 427.94 34.9033 427.552 34.4039C427.163 33.9045 426.941 33.0722 426.941 31.9069V22.807H431.491ZM397.422 35.1252C395.757 35.1252 394.426 34.5703 393.482 33.4606C392.539 32.3508 392.095 30.7972 392.095 28.7996C392.095 26.7466 392.595 25.1375 393.482 24.0277C394.426 22.918 395.702 22.3631 397.366 22.3631C398.976 22.3631 400.252 22.9179 401.14 23.9722C402.027 25.0265 402.527 26.6356 402.527 28.6887C402.527 30.7972 402.083 32.4063 401.251 33.4606C400.363 34.6258 399.087 35.1252 397.422 35.1252ZM397.588 18.6454C394.426 18.6454 391.873 19.5887 390.042 21.4198C388.211 23.2509 387.323 25.8033 387.323 29.0216C387.323 32.0734 388.211 34.4594 389.987 36.235C391.762 38.0106 394.148 38.8984 397.089 38.8984C400.196 38.8984 402.638 37.9551 404.469 36.0685C406.3 34.1819 407.188 31.685 407.188 28.5777C407.188 25.5259 406.355 23.0289 404.635 21.3088C402.971 19.5332 400.64 18.6454 397.588 18.6454ZM379.943 18.6454C377.779 18.6454 376.004 19.2003 374.617 20.31C373.229 21.4198 372.564 22.8625 372.564 24.5826C372.564 25.4704 372.73 26.3027 373.007 26.9685C373.285 27.6344 373.784 28.2447 374.395 28.7441C375.005 29.2435 375.948 29.7984 377.169 30.2978C378.223 30.7417 379 31.0746 379.499 31.4075C379.999 31.685 380.332 31.9624 380.498 32.2399C380.665 32.5173 380.776 32.9057 380.776 33.3496C380.776 34.6258 379.777 35.2917 377.779 35.2917C377.058 35.2917 376.17 35.1252 375.282 34.8478C374.339 34.5148 373.507 34.1264 372.73 33.5161L372.564 33.4051V37.8441L372.619 37.8996C373.285 38.177 374.117 38.4545 375.06 38.6764C376.004 38.8984 376.892 38.9539 377.668 38.9539C379.999 38.9539 381.941 38.399 383.273 37.2892C384.66 36.1795 385.381 34.6813 385.381 32.9057C385.381 31.6295 384.993 30.4643 384.271 29.5765C383.55 28.6887 382.218 27.8563 380.443 27.135C379 26.5801 378.112 26.0807 377.724 25.6923C377.335 25.3594 377.169 24.86 377.169 24.1942C377.169 23.6393 377.391 23.1954 377.89 22.807C378.39 22.4186 379 22.2521 379.832 22.2521C380.609 22.2521 381.386 22.3631 382.163 22.585C382.94 22.807 383.606 23.1399 384.216 23.5283L384.382 23.6393V19.4222L384.327 19.3667C383.772 19.1448 383.106 18.9228 382.274 18.8119C381.386 18.7564 380.609 18.6454 379.943 18.6454ZM360.523 35.1252C358.858 35.1252 357.526 34.5703 356.583 33.4606C355.64 32.3508 355.196 30.7972 355.196 28.7996C355.196 26.7466 355.695 25.1375 356.583 24.0277C357.526 22.918 358.803 22.3631 360.467 22.3631C362.076 22.3631 363.353 22.9179 364.24 23.9722C365.128 25.0265 365.628 26.6356 365.628 28.6887C365.628 30.7972 365.184 32.4063 364.351 33.4606C363.519 34.6258 362.243 35.1252 360.523 35.1252ZM360.745 18.6454C357.582 18.6454 355.029 19.5887 353.198 21.4198C351.367 23.2509 350.479 25.8033 350.479 29.0216C350.479 32.0734 351.367 34.4594 353.143 36.235C354.918 38.0106 357.304 38.8984 360.245 38.8984C363.353 38.8984 365.794 37.9551 367.625 36.0685C369.456 34.1819 370.344 31.685 370.344 28.5777C370.344 25.5259 369.512 23.0289 367.792 21.3088C366.127 19.5332 363.741 18.6454 360.745 18.6454ZM343.488 22.4741V19.1448H338.938V38.4545H343.488V28.5777C343.488 26.9131 343.876 25.5259 344.598 24.4716C345.319 23.4173 346.318 22.918 347.539 22.918C347.927 22.918 348.426 22.9734 348.926 23.1399C349.425 23.2509 349.758 23.4173 349.98 23.5838L350.147 23.6948V19.0893L350.091 19.0338C349.647 18.8674 349.092 18.7564 348.315 18.7564C347.15 18.7564 346.151 19.1448 345.264 19.8661C344.542 20.532 343.987 21.3643 343.488 22.4741ZM330.837 18.6454C328.728 18.6454 326.897 19.0893 325.288 19.9771C323.679 20.8649 322.458 22.1411 321.626 23.7503C320.794 25.3594 320.35 27.246 320.35 29.299C320.35 31.1301 320.738 32.7947 321.57 34.2929C322.403 35.7911 323.513 36.9563 324.955 37.7331C326.398 38.51 328.063 38.9539 329.949 38.9539C332.113 38.9539 333.944 38.5099 335.442 37.6776L335.498 37.6221V33.4606L335.331 33.6271C334.666 34.1264 333.889 34.5149 333.112 34.7923C332.335 35.0697 331.558 35.2362 330.948 35.2362C329.172 35.2362 327.73 34.6813 326.675 33.5716C325.621 32.4618 325.122 30.9082 325.122 28.9661C325.122 27.024 325.677 25.4149 326.786 24.2497C327.896 23.0844 329.283 22.4741 331.059 22.4741C332.557 22.4741 334 22.9734 335.387 23.9722L335.553 24.0832V19.6997L335.498 19.6442C334.998 19.3667 334.277 19.0893 333.389 18.9229C332.502 18.7564 331.614 18.6454 330.837 18.6454ZM317.242 19.1448H312.692V38.4545H317.242V19.1448ZM315.023 10.8772C314.302 10.8772 313.636 11.1546 313.081 11.654C312.526 12.1534 312.249 12.8192 312.249 13.5406C312.249 14.2619 312.526 14.9277 313.025 15.4271C313.58 15.9265 314.191 16.1485 314.967 16.1485C315.744 16.1485 316.41 15.9265 316.91 15.4271C317.464 14.9277 317.742 14.3174 317.742 13.5406C317.742 12.8192 317.464 12.2089 316.965 11.654C316.466 11.1546 315.8 10.8772 315.023 10.8772ZM303.703 17.7021V38.4545H308.364V11.4875H301.928L293.771 31.5185L285.836 11.4875H279.178V38.4545H283.561V17.7021H283.728L292.107 38.4545H295.38L303.592 17.7021H303.703Z" fill="#706D6E"/>
<path d="M242.002 23.8625H220.639V2.49979H242.002V23.8625Z" fill="#F1511B"/>
<path d="M265.639 23.8625H244.276V2.49979H265.639V23.8625Z" fill="#80CC28"/>
<path d="M242.002 47.5002H220.639V26.082H242.002V47.5002Z" fill="#00ADEF"/>
<path d="M265.639 47.5002H244.276V26.082H265.639V47.5002Z" fill="#FBBC09"/>
<path d="M583.945 12.6072C583.945 14.4074 582.495 15.86 580.692 15.86C578.889 15.86 577.439 14.4105 577.439 12.6072C577.439 10.8071 578.845 9.35445 580.692 9.35445C582.536 9.40141 583.945 10.8509 583.945 12.6072ZM570.499 19.1535C570.499 19.4603 570.499 19.9455 570.499 19.9455C570.499 19.9455 568.962 17.9231 565.621 17.9231C560.174 17.9231 555.91 22.0963 555.91 27.8536C555.91 33.5671 560.127 37.7841 565.621 37.7841C568.962 37.7841 570.499 35.7179 570.499 35.7179V36.5538C570.499 36.9482 570.805 37.2582 571.203 37.2582H575.245V18.4522C575.245 18.4522 571.554 18.4522 571.203 18.4522C570.805 18.4522 570.499 18.8028 570.499 19.1535ZM570.499 31.2379C569.75 32.3367 568.257 33.3041 566.457 33.3041C563.248 33.3041 560.787 31.2817 560.787 27.9006C560.787 24.4725 563.248 22.497 566.457 22.497C568.213 22.497 569.797 23.5082 570.499 24.5633V31.2379ZM578.275 18.4522H583.065V37.302H578.275V18.4522ZM650.115 17.9669C646.818 17.9669 645.237 19.9894 645.237 19.9894V9.40141H640.447V37.302C640.447 37.302 644.138 37.302 644.489 37.302C644.883 37.302 645.193 36.9514 645.193 36.5976V35.7617C645.193 35.7617 646.731 37.8279 650.071 37.8279C655.518 37.8279 659.782 33.6109 659.782 27.8974C659.782 22.1433 655.518 17.9669 650.115 17.9669ZM649.323 33.2165C647.479 33.2165 646.026 32.2491 645.281 31.1502V24.4287C646.029 23.4174 647.654 22.3624 649.323 22.3624C652.532 22.3624 654.992 24.3848 654.992 27.7659C654.992 31.2379 652.532 33.2165 649.323 33.2165ZM637.943 26.1411V37.3458H633.153V26.6702C633.153 23.5521 632.142 22.3217 629.462 22.3217C628.012 22.3217 626.519 23.0699 625.552 24.1657V37.302H620.762V18.4522H624.584C624.979 18.4522 625.289 18.8028 625.289 19.1566V19.9487C626.694 18.4992 628.541 17.9262 630.385 17.9262C632.495 17.9262 634.252 18.5399 635.657 19.7264C637.285 21.1759 637.943 22.976 637.943 26.1411ZM609.031 17.9669C605.734 17.9669 604.153 19.9894 604.153 19.9894V9.40141H599.363V37.302C599.363 37.302 603.055 37.302 603.405 37.302C603.8 37.302 604.11 36.9514 604.11 36.5976V35.7617C604.11 35.7617 605.647 37.8279 608.987 37.8279C614.435 37.8279 618.699 33.6109 618.699 27.8974C618.742 22.1433 614.482 17.9669 609.031 17.9669ZM608.242 33.2165C606.398 33.2165 604.945 32.2491 604.2 31.1502V24.4287C604.949 23.4174 606.573 22.3624 608.242 22.3624C611.451 22.3624 613.912 24.3848 613.912 27.7659C613.909 31.2379 611.448 33.2165 608.242 33.2165ZM595.19 17.9669C596.64 17.9669 597.388 18.2299 597.388 18.2299V22.6692C597.388 22.6692 593.39 21.3074 590.886 24.1625V37.3427H586.096V18.4491C586.096 18.4491 589.787 18.4491 590.137 18.4491C590.532 18.4491 590.842 18.7997 590.842 19.1535V19.9455C591.765 18.8905 593.697 17.9669 595.19 17.9669ZM545.234 35.5864C544.971 34.9728 544.752 34.3122 544.486 33.7862C544.091 32.8627 543.694 32.0299 543.343 31.2379L543.299 31.194C539.827 23.6804 536.136 16.0791 532.226 8.56553L532.095 8.25872C531.7 7.51048 531.303 6.72156 530.908 5.88567C530.426 4.96212 529.897 4.0417 529.108 3.11815C527.527 1.09573 525.198 0 522.737 0C520.233 0 517.991 1.09886 516.322 2.98666C515.574 3.91021 515.004 4.83063 514.522 5.75418C514.128 6.54624 513.73 7.33517 513.336 8.12723L513.204 8.43404C509.338 15.9477 505.603 23.5489 502.131 31.0625L502.087 31.1502C501.737 31.9423 501.339 32.8189 500.944 33.6986C500.682 34.2684 500.462 34.8413 500.196 35.4987C499.536 37.3427 499.36 39.1021 499.583 40.9023C500.152 44.681 502.657 47.7991 506.085 49.2079C507.403 49.7777 508.721 50 510.127 50C510.521 50 511.05 49.9562 511.445 49.9123C513.113 49.6932 514.785 49.1641 516.454 48.1999C518.52 47.0572 520.452 45.3885 522.649 42.9716C524.847 45.3885 526.866 47.0133 528.845 48.1999C530.514 49.1672 532.185 49.6932 533.854 49.9123C534.249 49.9562 534.778 50 535.172 50C536.578 50 537.983 49.737 539.214 49.2079C542.73 47.8023 545.19 44.5933 545.716 40.9023C546.111 39.1898 545.892 37.4335 545.234 35.5864ZM522.649 38.1786C519.926 34.7505 518.21 31.5447 517.597 28.8648C517.334 27.7221 517.29 26.7109 517.465 25.7905C517.553 24.9984 517.86 24.2972 518.257 23.6804C519.224 22.3186 520.805 21.4827 522.649 21.4827C524.493 21.4827 526.165 22.2747 527.042 23.6804C527.436 24.294 527.746 24.9984 527.834 25.7905C527.965 26.714 527.922 27.7253 527.702 28.8648C527.129 31.5447 525.373 34.7536 522.649 38.1786ZM542.642 40.5516C542.291 43.1438 540.532 45.4292 538.071 46.3966C536.885 46.8787 535.567 47.0572 534.249 46.8787C532.974 46.7472 531.744 46.3089 530.426 45.5607C528.626 44.5495 526.823 43.0123 524.713 40.6831C528.009 36.6414 530.028 32.9065 530.777 29.6099C531.127 28.0728 531.171 26.6671 531.04 25.3491C530.821 24.0749 530.379 22.9322 529.678 21.921C528.141 19.6794 525.505 18.3614 522.602 18.3614C519.7 18.3614 517.111 19.7232 515.527 21.921C514.823 22.9322 514.384 24.0749 514.165 25.3491C513.946 26.6671 514.034 28.1166 514.428 29.6099C515.177 32.9065 517.24 36.6852 520.492 40.7269C518.426 43.0123 516.582 44.5933 514.779 45.6045C513.461 46.3528 512.231 46.7472 510.956 46.9225C509.595 47.054 508.32 46.8787 507.134 46.4404C504.673 45.4292 502.917 43.1877 502.563 40.5955C502.432 39.3213 502.519 38.0909 503.001 36.6852C503.133 36.2031 503.396 35.674 503.662 35.1042C504.013 34.3122 504.41 33.4356 504.805 32.5997L504.848 32.5121C508.32 25.0423 512.011 17.441 515.878 10.015L516.009 9.70822C516.404 8.95999 516.801 8.17106 517.196 7.42283C517.59 6.63077 518.032 5.88567 518.601 5.2251C519.657 4.03857 521.062 3.38113 522.599 3.38113C524.137 3.38113 525.542 4.0417 526.597 5.2251C527.167 5.88567 527.608 6.63077 528.003 7.42283C528.397 8.17106 528.795 8.95999 529.189 9.70822L529.321 10.015C533.143 17.4848 536.835 25.0861 540.306 32.5559V32.5997C540.701 33.3918 541.055 34.3122 541.449 35.1042C541.712 35.7179 541.931 36.2031 542.11 36.6852C542.686 38.0033 542.861 39.2336 542.642 40.5516Z" fill="#FF5A5F"/>
<path d="M740.221 43.4189H732.824V24.9704H727.782V18.9662H732.824V14.6943C732.824 9.6316 735.051 6 742.432 6C743.993 6 746.446 6.31205 746.446 6.31205V11.8913H743.869C741.249 11.8913 740.221 12.6875 740.221 14.8934V18.9662H746.344L745.8 24.9704H740.221V43.4189ZM757.201 18.4873C757.093 18.4873 756.98 18.4927 756.873 18.4927C750.013 18.4927 746.871 23.6523 746.871 30.98C746.871 40.207 750.944 43.9032 756.927 43.9032C760.348 43.9032 762.597 42.4613 763.964 39.7766V43.4243H771.001V18.9715H763.964V22.7323C762.85 20.3112 760.537 18.5196 757.201 18.4873ZM758.993 24.2656C761.876 24.2656 763.603 26.2778 763.603 29.6942L763.609 33.1859C763.609 35.4886 762.178 38.1841 758.993 38.1841C754.091 38.1841 754.22 32.89 754.22 31.1253C754.22 25.1964 756.83 24.2656 758.993 24.2656ZM773.847 31.2006C773.847 28.2308 773.707 18.5088 786.372 18.5088C791.456 18.5088 793.582 20.1283 793.582 20.1283L791.876 25.4223C791.876 25.4223 789.756 24.2549 786.991 24.2549C783.451 24.2549 781.196 26.3047 781.196 29.9148L781.202 32.5026C781.202 35.9728 783.381 38.2863 787.002 38.2863C789.52 38.2863 791.838 37.108 791.838 37.108L793.539 42.2891C793.539 42.2891 791.596 43.9139 786.41 43.9139C774.342 43.9085 773.847 35.1873 773.847 31.2006ZM834.847 18.4927C841.707 18.4927 844.897 23.6523 844.897 30.98C844.897 40.207 840.825 43.9032 834.842 43.9032C831.42 43.9032 828.891 42.4613 827.525 39.7766V43.4243L820.574 43.4189V6.74246L827.95 6.09685V22.3987C829.015 19.5472 832.512 18.4927 834.847 18.4927ZM832.776 24.2656C829.892 24.2656 827.95 26.2778 827.95 29.6942L827.945 33.1859C827.939 35.4886 829.29 38.1841 832.776 38.1841C837.677 38.1841 837.548 32.89 837.548 31.1253C837.548 25.1964 834.939 24.2656 832.776 24.2656ZM806.381 18.5142C798.601 18.5142 794.491 22.7592 794.491 30.2968V31.6956C794.491 41.4821 800.258 44 807.14 44C813.827 44 816.851 42.1277 816.851 42.1277L815.468 37.1457C815.468 37.1457 811.906 38.6629 808.022 38.6629C803.992 38.6629 802.26 37.6353 801.813 33.7616H817.437V29.7641C817.443 21.5971 812.826 18.5142 806.381 18.5142ZM806.569 23.5016C809.265 23.5016 811.008 25.1533 810.911 28.984H801.829C801.985 24.9543 803.868 23.5016 806.569 23.5016ZM859.607 18.482C851.617 18.482 847.41 22.9851 847.41 31.0554C847.41 42.1277 854.662 43.9139 859.623 43.9139C866.886 43.9139 871.717 40.0026 871.717 31.1576C871.712 21.9521 866.283 18.482 859.607 18.482ZM859.505 24.2871C863.018 24.2871 864.411 26.918 864.411 29.9094V32.4811C864.411 36.1073 862.464 38.2056 859.494 38.2056C856.712 38.2056 854.759 36.2418 854.759 32.4811V29.9094C854.759 25.8958 857.083 24.2871 859.505 24.2871ZM886.411 18.482C878.421 18.482 874.214 22.9851 874.214 31.0554C874.214 42.1277 881.466 43.9139 886.427 43.9139C893.69 43.9139 898.521 40.0026 898.521 31.1576C898.516 21.9521 893.087 18.482 886.411 18.482ZM886.314 24.2871C889.827 24.2871 891.22 26.918 891.22 29.9094V32.4811C891.22 36.1073 889.273 38.2056 886.303 38.2056C883.522 38.2056 881.569 36.2418 881.569 32.4811V29.9094C881.569 25.8958 883.893 24.2871 886.314 24.2871ZM901.308 43.4189V6.74246L908.706 6.09685V30.6787L916.05 18.9662H923.867L916.211 31.0984L924.163 43.4189H916.324L908.706 31.4589V43.4189H901.308Z" fill="#1877F2"/>
<path d="M1017.16 0C1003.36 0 992.163 11.1974 992.163 25C992.163 38.8026 1003.36 50 1017.16 50C1030.97 50 1042.16 38.8026 1042.16 25C1042.21 11.1974 1031.01 0 1017.16 0ZM1028.63 36.0603C1028.18 36.7916 1027.22 37.0201 1026.49 36.5631C1020.59 32.9525 1013.23 32.1755 1004.5 34.1408C1003.68 34.3236 1002.81 33.8208 1002.63 32.9525C1002.45 32.1298 1002.95 31.2614 1003.82 31.0786C1013.37 28.8848 1021.51 29.8446 1028.13 33.8665C1028.86 34.3693 1029.09 35.3291 1028.63 36.0603ZM1031.7 29.2504C1031.15 30.1645 1029.91 30.4388 1029 29.8903C1022.28 25.777 1012.04 24.543 1004.09 26.9653C1003.04 27.2852 1001.99 26.691 1001.67 25.6856C1001.35 24.6344 1001.94 23.5832 1002.95 23.2632C1012.04 20.521 1023.33 21.8464 1031.06 26.5996C1031.97 27.1481 1032.29 28.3364 1031.7 29.2504ZM1031.97 22.1664C1023.93 17.3675 1010.63 16.9561 1002.9 19.287C1001.67 19.6526 1000.34 18.9671 999.979 17.7331C999.613 16.4991 1000.3 15.1737 1001.53 14.808C1010.35 12.1115 1025.07 12.66 1034.35 18.1444C1035.44 18.7843 1035.81 20.2468 1035.17 21.3437C1034.53 22.4406 1033.07 22.8062 1031.97 22.1664ZM1060.22 23.0804C1055.87 22.0292 1055.14 21.3437 1055.14 19.7898C1055.14 18.3729 1056.51 17.3675 1058.53 17.3675C1060.49 17.3675 1062.41 18.0987 1064.42 19.6069C1064.47 19.6526 1064.56 19.6526 1064.65 19.6526C1064.74 19.6526 1064.79 19.6069 1064.83 19.5155L1066.93 16.5448C1067.03 16.4077 1066.98 16.2706 1066.89 16.1792C1064.47 14.2596 1061.77 13.2998 1058.57 13.2998C1053.91 13.2998 1050.66 16.0877 1050.66 20.1097C1050.66 24.4058 1053.5 25.9141 1058.34 27.1024C1062.46 28.0622 1063.19 28.8391 1063.19 30.2559C1063.19 31.8556 1061.77 32.8154 1059.48 32.8154C1056.97 32.8154 1054.91 31.947 1052.58 29.9817C1052.54 29.936 1052.45 29.8903 1052.36 29.8903C1052.26 29.8903 1052.22 29.936 1052.17 29.9817L1049.8 32.8154C1049.7 32.9525 1049.7 33.0896 1049.84 33.2267C1052.54 35.6033 1055.83 36.883 1059.35 36.883C1064.38 36.883 1067.62 34.1408 1067.62 29.8903C1067.62 26.3254 1065.47 24.3601 1060.22 23.0804ZM1079 18.83C1076.81 18.83 1075.02 19.6983 1073.56 21.4351V19.4698C1073.56 19.3327 1073.42 19.1956 1073.29 19.1956H1069.4C1069.27 19.1956 1069.13 19.3327 1069.13 19.4698V41.4534C1069.13 41.5905 1069.27 41.7276 1069.4 41.7276H1073.29C1073.42 41.7276 1073.56 41.5905 1073.56 41.4534V34.5064C1075.02 36.1517 1076.81 36.9744 1079 36.9744C1083.07 36.9744 1087.14 33.8665 1087.14 27.925C1087.14 21.9378 1083.07 18.83 1079 18.83ZM1082.66 27.8793C1082.66 30.8958 1080.78 33.0439 1078.13 33.0439C1075.48 33.0439 1073.47 30.8501 1073.47 27.8793C1073.47 24.9543 1075.48 22.7148 1078.13 22.7148C1080.74 22.7605 1082.66 24.9086 1082.66 27.8793ZM1097.65 18.83C1092.44 18.83 1088.37 22.8519 1088.37 27.9707C1088.37 33.0439 1092.44 37.0201 1097.6 37.0201C1102.81 37.0201 1106.93 32.9982 1106.93 27.925C1106.93 22.8062 1102.86 18.83 1097.65 18.83ZM1097.65 33.0896C1094.86 33.0896 1092.8 30.8501 1092.8 27.925C1092.8 24.9543 1094.81 22.8062 1097.6 22.8062C1100.39 22.8062 1102.49 25.0457 1102.49 27.9707C1102.49 30.9415 1100.44 33.0896 1097.65 33.0896ZM1118.03 19.1499H1113.78V14.808C1113.78 14.6709 1113.64 14.5338 1113.51 14.5338H1109.62C1109.48 14.5338 1109.35 14.6709 1109.35 14.808V19.1499H1107.47C1107.34 19.1499 1107.2 19.287 1107.2 19.4241V22.7605C1107.2 22.8976 1107.34 23.0347 1107.47 23.0347H1109.35V31.6271C1109.35 35.1005 1111.08 36.883 1114.51 36.883C1115.88 36.883 1117.03 36.6088 1118.12 35.9689C1118.21 35.9232 1118.26 35.8318 1118.26 35.7404V32.5868C1118.26 32.4954 1118.21 32.404 1118.12 32.3583C1118.03 32.3126 1117.94 32.3126 1117.85 32.3583C1117.12 32.7239 1116.39 32.9068 1115.56 32.9068C1114.33 32.9068 1113.78 32.3583 1113.78 31.0786V23.0804H1118.03C1118.17 23.0804 1118.31 22.9433 1118.31 22.8062V19.4698C1118.35 19.287 1118.21 19.1956 1118.03 19.1499ZM1132.89 19.1956V18.6472C1132.89 17.0932 1133.48 16.362 1134.85 16.362C1135.67 16.362 1136.31 16.5448 1137.04 16.7733C1137.14 16.819 1137.23 16.7733 1137.32 16.7276C1137.41 16.6819 1137.46 16.5905 1137.46 16.4991V13.2541C1137.46 13.117 1137.36 13.0256 1137.27 12.9799C1136.5 12.7514 1135.54 12.5228 1134.07 12.5228C1130.51 12.5228 1128.63 14.5338 1128.63 18.3272V19.1499H1126.76C1126.62 19.1499 1126.49 19.287 1126.49 19.4241V22.7605C1126.49 22.8976 1126.62 23.0347 1126.76 23.0347H1128.63V36.2888C1128.63 36.426 1128.77 36.5631 1128.91 36.5631H1132.79C1132.93 36.5631 1133.07 36.426 1133.07 36.2888V23.0347H1136.68L1142.21 36.2888C1141.57 37.66 1140.97 37.9799 1140.11 37.9799C1139.42 37.9799 1138.69 37.7971 1137.96 37.3857C1137.87 37.34 1137.82 37.34 1137.73 37.3857C1137.64 37.4314 1137.59 37.4771 1137.55 37.5228L1136.22 40.4022C1136.18 40.5393 1136.22 40.6764 1136.36 40.7678C1137.73 41.4991 1138.96 41.819 1140.47 41.819C1143.31 41.819 1144.91 40.4936 1146.28 36.9287L1152.99 19.6069C1153.04 19.5155 1153.04 19.4241 1152.95 19.3327C1152.9 19.2413 1152.81 19.1956 1152.72 19.1956H1148.7C1148.56 19.1956 1148.47 19.287 1148.42 19.3784L1144.31 31.17L1139.79 19.3784C1139.74 19.287 1139.65 19.1956 1139.51 19.1956H1132.89ZM1124.29 19.1499H1120.41C1120.27 19.1499 1120.13 19.287 1120.13 19.4241V36.2888C1120.13 36.426 1120.27 36.5631 1120.41 36.5631H1124.29C1124.43 36.5631 1124.57 36.426 1124.57 36.2888V19.4241C1124.57 19.287 1124.43 19.1499 1124.29 19.1499ZM1122.37 11.4717C1120.82 11.4717 1119.59 12.7057 1119.59 14.2596C1119.59 15.8135 1120.82 17.0475 1122.37 17.0475C1123.93 17.0475 1125.16 15.8135 1125.16 14.2596C1125.12 12.7514 1123.88 11.4717 1122.37 11.4717ZM1156.24 24.5887C1154.73 24.5887 1153.5 23.3547 1153.5 21.8464C1153.5 20.3382 1154.69 19.1042 1156.24 19.1042C1157.75 19.1042 1158.98 20.3382 1158.98 21.8464C1158.98 23.3547 1157.79 24.5887 1156.24 24.5887ZM1156.24 19.4241C1154.82 19.4241 1153.77 20.521 1153.77 21.8921C1153.77 23.2632 1154.82 24.3601 1156.19 24.3601C1157.61 24.3601 1158.66 23.2632 1158.66 21.8921C1158.71 20.521 1157.66 19.4241 1156.24 19.4241ZM1156.88 22.1207L1157.66 23.2175H1157.02L1156.33 22.2121H1155.74V23.2175H1155.19V20.3382H1156.47C1157.15 20.3382 1157.57 20.6581 1157.57 21.2523C1157.52 21.755 1157.25 22.0292 1156.88 22.1207ZM1156.42 20.8409H1155.74V21.755H1156.42C1156.79 21.755 1156.97 21.5722 1156.97 21.298C1156.97 21.0238 1156.74 20.8409 1156.42 20.8409Z" fill="#1ED760"/>
</svg>
